<?xml version="1.0" encoding="UTF-8"?><svg id="Layer_2" xmlns="http://www.w3.org/2000/svg" viewBox="0 0 50 45.56"><defs><style>.cls-1{fill:#da1a16;}.cls-2{fill:#2d2981;}.cls-3{fill:#dc1915;}.cls-4{fill:#fed801;}</style></defs><g id="Layer_1-2"><g><g><path class="cls-1" d="M3.42,25.23c-.21,.1-.43,.18-.61,.31-.71,.48-.76,1.4-.09,1.84,.47,.31,.96,.19,1.43-.03,1.05-.51,1.84-1.34,2.59-2.2,1.23-1.41,2.47-2.81,3.64-4.27,1.19-1.48,2.31-3.01,3.45-4.53,.75-1.01,1.49-2.03,2.19-3.07,.85-1.25,1.67-2.51,2.49-3.78,.83-1.3,1.64-2.62,2.45-3.94,.77-1.25,1.52-2.52,2.28-3.78,.32-.54,.64-1.09,.95-1.63,.02-.04,.04-.08,.07-.12l.09,.02c.02,.1,.07,.19,.07,.29,0,1.31,0,2.61,0,3.92,0,.17-.06,.36-.15,.5-1.31,2.06-2.6,4.14-3.97,6.15-1.31,1.92-2.68,3.8-4.1,5.63-1.79,2.31-3.64,4.58-5.5,6.83-1.35,1.64-2.85,3.14-4.55,4.44-.66,.5-1.32,1.01-2.1,1.34-.94,.39-2.03,.12-2.68-.63-.73-.83-.74-2.07,0-2.89,.46-.52,1.06-.68,1.74-.6,.13,.02,.25,.08,.37,.13l-.02,.08Z"/><path class="cls-1" d="M25.67,0c.16,.26,.33,.53,.49,.79,1.13,1.89,2.24,3.79,3.4,5.66,1.11,1.8,2.24,3.6,3.42,5.36,1.13,1.69,2.3,3.36,3.51,5,1.4,1.88,2.82,3.74,4.31,5.54,1.17,1.42,2.45,2.75,3.71,4.09,.47,.5,1.06,.88,1.74,1.05,.67,.17,1.25-.11,1.39-.64,.17-.63-.18-1.28-.82-1.51-.1-.04-.2-.07-.39-.14,.15-.08,.22-.13,.29-.16,.86-.26,1.95,.29,2.26,1.13,.41,1.12,.13,2.07-.86,2.75-.86,.58-1.76,.52-2.62,.02-1.56-.9-2.94-2.05-4.16-3.36-1.4-1.49-2.75-3.04-4.06-4.6-1.25-1.5-2.46-3.04-3.64-4.6-1.17-1.55-2.31-3.13-3.43-4.71-.93-1.31-1.83-2.65-2.72-3.99-.52-.78-.98-1.59-1.47-2.39-.06-.1-.13-.2-.2-.3-.22-.32-.3-.67-.29-1.07,.02-1.2,0-2.39,0-3.59,0-.11,.03-.21,.04-.32l.09-.02Z"/><path class="cls-2" d="M49.86,29.32c.04,.12,.08,.18,.08,.24-.02,1.01-.2,1.97-1.02,2.66-.57,.49-1.27,.62-2,.66-.86,.04-1.68-.14-2.48-.42-2.5-.88-4.47-2.52-6.21-4.45-1.37-1.51-2.72-3.03-4.05-4.58-1.09-1.26-2.14-2.55-3.19-3.85-1.16-1.43-2.3-2.88-3.44-4.33-.64-.81-1.26-1.62-1.88-2.44-.08-.1-.11-.26-.11-.39-.01-1.1-.02-2.21-.02-3.31,0-.08,.03-.15,.04-.23l.09-.04c.17,.23,.34,.46,.5,.69,1.14,1.63,2.26,3.28,3.43,4.88,.87,1.2,1.79,2.36,2.72,3.52,1.44,1.79,2.92,3.55,4.38,5.32,1.32,1.6,2.73,3.13,4.25,4.55,1.13,1.06,2.35,1.99,3.76,2.63,1.12,.51,2.29,.74,3.51,.33,.63-.21,1.11-.62,1.46-1.18,.04-.07,.09-.14,.18-.26Z"/><path class="cls-4" d="M.08,29.38c-.04,.12-.08,.18-.08,.24,.02,1.01,.2,1.97,1.02,2.66,.57,.49,1.27,.62,2,.66,.86,.04,1.68-.14,2.48-.42,2.5-.88,4.47-2.52,6.21-4.45,1.37-1.51,2.72-3.03,4.05-4.58,1.09-1.26,2.14-2.55,3.19-3.85,1.16-1.43,2.3-2.88,3.44-4.33,.64-.81,1.26-1.62,1.88-2.44,.08-.1,.11-.26,.11-.39,.01-1.1,.02-2.21,.02-3.31,0-.08-.03-.15-.04-.23l-.09-.04c-.17,.23-.34,.46-.5,.69-1.14,1.63-2.26,3.28-3.43,4.88-.87,1.2-1.79,2.36-2.72,3.52-1.44,1.79-2.92,3.55-4.38,5.32-1.32,1.6-2.73,3.13-4.25,4.55-1.13,1.06-2.35,1.99-3.76,2.63-1.12,.51-2.29,.74-3.51,.33-.63-.21-1.11-.62-1.46-1.18-.04-.07-.09-.14-.18-.26Z"/><path class="cls-3" d="M4.42,33.86c.17,0,.34-.02,.5,0,.99,.12,1.94-.06,2.86-.41,2.02-.77,3.68-2.07,5.26-3.51,1.56-1.42,2.91-3.03,4.26-4.64,1.54-1.85,3.08-3.7,4.61-5.56,.74-.9,1.46-1.82,2.2-2.72,.05-.06,.14-.09,.21-.14,.03,.07,.08,.15,.08,.22,0,1.07,.01,2.13,0,3.2,0,.17-.1,.36-.21,.49-1.13,1.26-2.25,2.54-3.41,3.77-1.62,1.71-3.26,3.4-4.94,5.05-.96,.95-1.98,1.84-3.05,2.66-1.21,.93-2.54,1.71-4.05,2.08-1.09,.27-2.19,.25-3.28,0-.36-.09-.7-.24-1.05-.36l.02-.11Z"/><path class="cls-3" d="M45.6,33.89c-.44,.33-.91,.44-1.38,.52-1.52,.27-2.98,.1-4.39-.56-1.83-.86-3.44-2.04-4.87-3.45-2.17-2.16-4.31-4.36-6.44-6.57-.96-1-1.86-2.06-2.78-3.1-.1-.12-.17-.31-.18-.47-.02-1.06-.02-2.11-.02-3.17,0-.08,.03-.17,.07-.34,.22,.27,.4,.46,.56,.67,1.28,1.57,2.55,3.16,3.84,4.72,1.45,1.75,2.92,3.5,4.4,5.23,1.34,1.56,2.81,2.98,4.45,4.22,1.05,.79,2.16,1.47,3.4,1.92,.91,.33,1.84,.5,2.81,.37,.12-.02,.24-.01,.36-.02,.03,0,.07,.02,.16,.04Z"/></g><g><path d="M.41,40.11c.25,.16,.6,.28,.98,.28,.56,0,.89-.3,.89-.73,0-.39-.23-.63-.8-.84-.7-.25-1.12-.62-1.12-1.21,0-.66,.55-1.16,1.38-1.16,.43,0,.75,.1,.94,.21l-.15,.45c-.13-.08-.42-.2-.8-.2-.58,0-.8,.35-.8,.64,0,.4,.26,.59,.85,.82,.72,.28,1.08,.63,1.08,1.25,0,.66-.48,1.23-1.48,1.23-.41,0-.86-.13-1.09-.28l.15-.46Z"/><path d="M4.35,36.57c.27-.04,.61-.08,1.06-.08,.54,0,.94,.13,1.19,.35,.23,.2,.37,.51,.37,.89s-.11,.69-.33,.91c-.3,.31-.76,.47-1.3,.47-.16,0-.32,0-.44-.04v1.71h-.55v-4.21Zm.55,2.05c.12,.03,.27,.04,.45,.04,.66,0,1.07-.33,1.07-.9s-.4-.84-1-.84c-.24,0-.42,.02-.52,.04v1.66Z"/><path d="M8.91,39.44l-.44,1.34h-.57l1.45-4.26h.66l1.45,4.26h-.59l-.45-1.34h-1.51Zm1.4-.43l-.42-1.23c-.09-.28-.16-.53-.22-.78h-.01c-.06,.25-.13,.51-.21,.77l-.42,1.23h1.29Z"/><path d="M12.59,40.78v-4.26h.61l1.36,2.15c.31,.5,.56,.95,.76,1.38h.02c-.05-.57-.06-1.09-.06-1.76v-1.78h.52v4.26h-.56l-1.35-2.16c-.3-.47-.58-.96-.79-1.42h-.02c.03,.54,.04,1.06,.04,1.76v1.82h-.52Z"/><path d="M18.18,36.52v4.26h-.56v-4.26h.56Z"/><path d="M19.96,40.11c.25,.16,.6,.28,.98,.28,.56,0,.89-.3,.89-.73,0-.39-.23-.63-.8-.84-.7-.25-1.12-.62-1.12-1.21,0-.66,.55-1.16,1.38-1.16,.43,0,.75,.1,.94,.21l-.15,.45c-.13-.08-.42-.2-.8-.2-.58,0-.8,.35-.8,.64,0,.4,.26,.59,.85,.82,.72,.28,1.08,.63,1.08,1.25,0,.66-.48,1.23-1.48,1.23-.41,0-.86-.13-1.09-.28l.15-.46Z"/><path d="M24.45,36.52v1.78h2.06v-1.78h.56v4.26h-.56v-2h-2.06v2h-.56v-4.26h.56Z"/><path d="M32.4,38.87v.4h-1.56v-.4h1.56Z"/><path d="M36.61,36.99h-1.3v-.47h3.15v.47h-1.3v3.79h-.56v-3.79Z"/><path d="M40.37,36.52v1.78h2.06v-1.78h.56v4.26h-.56v-2h-2.06v2h-.56v-4.26h.56Z"/><path d="M45.51,39.44l-.44,1.34h-.57l1.45-4.26h.66l1.45,4.26h-.59l-.45-1.34h-1.51Zm1.4-.43l-.42-1.23c-.09-.28-.16-.53-.22-.78h-.01c-.06,.25-.13,.51-.21,.77l-.42,1.23h1.29Z"/><path d="M50,36.52v4.26h-.56v-4.26h.56Z"/></g><g><path d="M1.97,45.44c-.11,.06-.35,.12-.64,.12-.68,0-1.2-.43-1.2-1.23s.52-1.28,1.27-1.28c.3,0,.49,.06,.58,.11l-.08,.26c-.12-.06-.28-.1-.49-.1-.57,0-.95,.36-.95,1,0,.6,.34,.98,.93,.98,.19,0,.39-.04,.51-.1l.06,.25Z"/><path d="M3,43.09v1.02h1.17v-1.02h.32v2.43h-.32v-1.14h-1.17v1.14h-.32v-2.43h.32Z"/><path d="M6.18,44.75l-.25,.76h-.32l.83-2.43h.37l.83,2.43h-.33l-.26-.76h-.86Zm.8-.24l-.24-.7c-.05-.16-.09-.3-.13-.44h0c-.04,.14-.07,.29-.12,.44l-.24,.7h.73Z"/><path d="M10.65,44.45c-.02-.34-.04-.75-.04-1.05h0c-.09,.28-.18,.59-.31,.92l-.43,1.18h-.24l-.4-1.16c-.12-.35-.21-.66-.28-.94h0c0,.3-.03,.71-.05,1.07l-.06,1.04h-.3l.17-2.43h.4l.41,1.17c.1,.3,.18,.57,.24,.82h0c.06-.24,.15-.51,.26-.82l.43-1.17h.4l.15,2.43h-.31l-.06-1.07Z"/><path d="M12.19,43.13c.14-.03,.36-.05,.57-.05,.31,0,.52,.05,.66,.18,.13,.09,.21,.24,.21,.43,0,.24-.16,.44-.41,.53h0c.23,.06,.5,.26,.5,.62,0,.21-.08,.37-.21,.49-.17,.15-.44,.23-.84,.23-.22,0-.38-.01-.49-.03v-2.38Zm.31,.99h.28c.33,0,.52-.18,.52-.41,0-.28-.21-.4-.53-.4-.14,0-.23,.01-.28,.02v.79Zm0,1.16c.06,.01,.15,.01,.26,.01,.32,0,.62-.12,.62-.47,0-.33-.28-.47-.63-.47h-.26v.93Z"/><path d="M16.15,44.38h-.94v.88h1.05v.26h-1.37v-2.43h1.31v.26h-1v.77h.94v.26Z"/><path d="M17.35,43.12c.16-.03,.39-.05,.6-.05,.33,0,.55,.06,.7,.2,.12,.11,.19,.27,.19,.46,0,.32-.2,.53-.45,.62h0c.18,.08,.3,.25,.35,.5,.08,.34,.14,.57,.19,.67h-.32c-.04-.07-.09-.28-.16-.58-.07-.33-.21-.46-.49-.47h-.3v1.05h-.31v-2.4Zm.31,1.11h.32c.33,0,.55-.18,.55-.46,0-.31-.23-.45-.56-.45-.15,0-.26,.01-.31,.03v.89Z"/><path d="M23.35,44.28c0,.83-.51,1.28-1.13,1.28s-1.09-.5-1.09-1.24c0-.77,.48-1.27,1.12-1.27s1.09,.51,1.09,1.23Zm-1.89,.04c0,.52,.28,.99,.78,.99s.78-.46,.78-1.01c0-.49-.25-.99-.77-.99s-.78,.48-.78,1.01Z"/><path d="M24.29,43.09h1.31v.26h-.99v.81h.91v.26h-.91v1.1h-.32v-2.43Z"/><path d="M29.66,45.44c-.11,.06-.35,.12-.64,.12-.68,0-1.2-.43-1.2-1.23s.51-1.28,1.27-1.28c.3,0,.49,.06,.58,.11l-.08,.26c-.12-.06-.28-.1-.49-.1-.57,0-.95,.36-.95,1,0,.6,.34,.98,.93,.98,.19,0,.39-.04,.51-.1l.06,.25Z"/><path d="M32.53,44.28c0,.83-.51,1.28-1.13,1.28s-1.09-.5-1.09-1.24c0-.77,.48-1.27,1.12-1.27s1.09,.51,1.09,1.23Zm-1.89,.04c0,.52,.28,.99,.78,.99s.78-.46,.78-1.01c0-.49-.25-.99-.77-.99s-.78,.48-.78,1.01Z"/><path d="M35.66,44.45c-.02-.34-.04-.75-.04-1.05h0c-.09,.28-.18,.59-.31,.92l-.43,1.18h-.24l-.4-1.16c-.12-.35-.21-.66-.28-.94h0c0,.3-.03,.71-.05,1.07l-.06,1.04h-.3l.17-2.43h.4l.41,1.17c.1,.3,.18,.57,.24,.82h0c.06-.24,.15-.51,.26-.82l.43-1.17h.4l.15,2.43h-.31l-.06-1.07Z"/><path d="M39.31,44.45c-.02-.34-.04-.75-.04-1.05h0c-.09,.28-.18,.59-.31,.92l-.43,1.18h-.24l-.4-1.16c-.12-.35-.21-.66-.28-.94h0c0,.3-.03,.71-.05,1.07l-.06,1.04h-.3l.17-2.43h.4l.41,1.17c.1,.3,.18,.57,.24,.82h0c.06-.24,.15-.51,.26-.82l.43-1.17h.4l.15,2.43h-.31l-.06-1.07Z"/><path d="M42.1,44.38h-.94v.88h1.05v.26h-1.37v-2.43h1.31v.26h-1v.77h.94v.26Z"/><path d="M43.38,43.12c.16-.03,.39-.05,.6-.05,.33,0,.55,.06,.7,.2,.12,.11,.19,.27,.19,.46,0,.32-.2,.53-.45,.62h0c.18,.08,.3,.25,.35,.5,.08,.34,.14,.57,.19,.67h-.32c-.04-.07-.09-.28-.16-.58-.07-.33-.21-.46-.49-.47h-.3v1.05h-.31v-2.4Zm.31,1.11h.32c.33,0,.55-.18,.55-.46,0-.31-.23-.45-.56-.45-.15,0-.26,.01-.31,.03v.89Z"/><path d="M47.76,45.44c-.11,.06-.35,.12-.64,.12-.68,0-1.2-.43-1.2-1.23s.51-1.28,1.27-1.28c.3,0,.49,.06,.58,.11l-.08,.26c-.12-.06-.28-.1-.49-.1-.57,0-.95,.36-.95,1,0,.6,.34,.98,.93,.98,.19,0,.39-.04,.51-.1l.06,.25Z"/><path d="M49.88,44.38h-.94v.88h1.05v.26h-1.37v-2.43h1.31v.26h-1v.77h.94v.26Z"/></g></g></g></svg>